# File created by Blade
# Date/Time:  Thu Jan 22 16:31:11 2015
# Frame Rate: 120.000 fps
#------------------------------------------------------
:FULLY-SPECIFIED
:DEGREES
718
root 26.693307 17.816361 -0.366606 3.975820 28.613105 -20.280646
RightUpLeg 15.745272 -6.615752 -36.604113
RightLeg 1.833311 -0.000000 -0.000000
RightFoot -20.632204 -16.962016 41.310320
RightToeBase 18.275207 -0.000000 -0.000000
LeftUpLeg -105.573626 26.699042 4.302919
LeftLeg 134.001613 -0.000000 -0.000000
LeftFoot -31.715775 0.095843 -23.100074
LeftToeBase -16.244115 -0.000000 0.000000
Spine 33.113560 0.679594 -51.243068
RightShoulder -14.488073 4.872659 -44.206712
RightArm 32.829627 69.776064 -12.917097
RightForeArm -2.681565 0.000000 16.372945
RightHand 14.635256 -0.000000 -43.934400
RightHandThumb1 -24.326973 -0.000000 -32.862282
LeftShoulder -16.665382 42.475142 13.599349
LeftArm 90.411264 -40.014252 -128.078449
LeftForeArm -9.613320 -0.000000 10.068328
LeftHand -27.954886 -0.000000 96.760226
LeftHandThumb1 -26.253704 0.000000 33.147579
Head 8.798035 5.061742 -46.865607
719
root 26.699615 17.812086 -0.370551 4.001452 28.623602 -20.274263
RightUpLeg 15.726901 -6.608684 -36.605778
RightLeg 1.843578 -0.000000 -0.000000
RightFoot -20.660176 -16.993304 41.290261
RightToeBase 18.302214 -0.000000 -0.000000
LeftUpLeg -105.609621 26.678635 4.246028
LeftLeg 134.009623 -0.000000 -0.000000
LeftFoot -31.762802 0.136584 -23.062503
LeftToeBase -16.251967 -0.000000 0.000000
Spine 33.127409 0.675319 -51.228245
RightShoulder -14.501423 4.875394 -44.213120
RightArm 32.854819 69.754230 -12.920141
RightForeArm -2.681143 -0.000000 16.430217
RightHand 14.523238 -0.000000 -43.891226
RightHandThumb1 -24.326973 -0.000000 -32.862282
LeftShoulder -16.689796 42.462626 13.546314
LeftArm 90.391379 -39.975814 -128.166001
LeftForeArm -9.533792 0.000000 10.294632
LeftHand -27.957349 0.000000 96.861220
LeftHandThumb1 -26.253704 0.000000 33.147579
Head 8.767539 5.038613 -46.877845
720
root 26.705364 17.808993 -0.375781 4.033031 28.632486 -20.270966
RightUpLeg 15.697213 -6.609674 -36.602390
RightLeg 1.854971 -0.000000 -0.000000
RightFoot -20.676483 -17.035330 41.260177
RightToeBase 18.304777 -0.000000 -0.000000
LeftUpLeg -105.649913 26.656739 4.181497
LeftLeg 134.012000 -0.000000 -0.000000
LeftFoot -31.824731 0.207281 -22.976087
LeftToeBase -16.242993 -0.000000 0.000000
Spine 33.131076 0.668908 -51.210202
RightShoulder -14.495212 4.850591 -44.225816
RightArm 32.880037 69.778594 -12.884300
RightForeArm -2.833508 0.000000 16.516448
RightHand 14.336808 -0.000000 -43.989457
RightHandThumb1 -24.326973 -0.000000 -32.862282
LeftShoulder -16.711062 42.456451 13.492629
LeftArm 90.418649 -39.931062 -128.311046
LeftForeArm -9.361955 -0.000000 10.525567
LeftHand -28.038514 -0.000000 96.930171
LeftHandThumb1 -26.253704 0.000000 33.147579
Head 8.767378 5.052569 -46.867495
721
root 26.711547 17.807286 -0.379917 4.051215 28.632838 -20.273234
RightUpLeg 15.687764 -6.560785 -36.582617
RightLeg 1.831531 -0.000000 -0.000000
RightFoot -20.694016 -17.106361 41.209306
RightToeBase 18.297815 -0.000000 -0.000000
LeftUpLeg -105.677336 26.647127 4.135710
LeftLeg 134.017577 -0.000000 -0.000000
LeftFoot -31.859571 0.275200 -22.919886
LeftToeBase -16.284034 -0.000000 0.000000
Spine 33.138998 0.670956 -51.193316
RightShoulder -14.482063 4.849161 -44.231480
RightArm 32.903282 69.781103 -12.873844
RightForeArm -2.942441 -0.000000 16.574424
RightHand 14.188957 0.000000 -44.145460
RightHandThumb1 -24.326973 -0.000000 -32.862282
LeftShoulder -16.727777 42.454531 13.448823
LeftArm 90.384975 -39.900081 -128.325603
LeftForeArm -9.326877 -0.000000 10.688174
LeftHand -28.102266 -0.000000 96.932421
LeftHandThumb1 -26.253704 0.000000 33.147579
Head 8.756452 5.059850 -46.866853
722
root 26.716916 17.806414 -0.384788 4.069213 28.639563 -20.285736
RightUpLeg 15.660909 -6.535990 -36.553986
RightLeg 1.839502 -0.000000 -0.000000
RightFoot -20.718523 -17.162689 41.149968
RightToeBase 18.275635 -0.000000 -0.000000
LeftUpLeg -105.708590 26.631210 4.089905
LeftLeg 134.016830 -0.000000 -0.000000
LeftFoot -31.919486 0.340341 -22.844513
LeftToeBase -16.270524 -0.000000 0.000000
Spine 33.150994 0.658473 -51.166736
RightShoulder -14.487008 4.821720 -44.235181
RightArm 33.039251 69.844713 -12.754238
RightForeArm -3.002985 0.000000 16.609122
RightHand 14.268884 -0.000000 -44.219378
RightHandThumb1 -24.326973 -0.000000 -32.862282
LeftShoulder -16.745293 42.428057 13.406393
LeftArm 90.367388 -39.883928 -128.330721
LeftForeArm -9.295785 -0.000000 10.764321
LeftHand -28.135935 -0.000000 96.961768
LeftHandThumb1 -26.253704 0.000000 33.147579
Head 8.738969 5.052100 -46.890924
723
root 26.721441 17.805710 -0.389159 4.083561 28.653514 -20.301436
RightUpLeg 15.639127 -6.535153 -36.530049
RightLeg 1.849979 -0.000000 -0.000000
RightFoot -20.741214 -17.192361 41.108151
RightToeBase 18.276978 -0.000000 -0.000000
LeftUpLeg -105.733202 26.612221 4.051969
LeftLeg 134.011619 -0.000000 -0.000000
LeftFoot -31.998408 0.371471 -22.798951
LeftToeBase -16.156935 -0.000000 0.000000
Spine 33.163973 0.646688 -51.135812
RightShoulder -14.483216 4.845992 -44.242085
RightArm 33.099572 69.792292 -12.761579
RightForeArm -2.945017 -0.000000 16.569641
RightHand 14.454215 0.000000 -44.339478
RightHandThumb1 -24.326973 -0.000000 -32.862282
LeftShoulder -16.753961 42.440190 13.377802
LeftArm 90.390040 -39.847313 -128.370694
LeftForeArm -9.239331 -0.000000 10.815566
LeftHand -28.215927 -0.000000 96.970675
LeftHandThumb1 -26.253704 0.000000 33.147579
Head 8.741389 5.069348 -46.881038
724
root 26.725673 17.805983 -0.393512 4.089399 28.655064 -20.320345
RightUpLeg 15.613487 -6.507880 -36.497987
RightLeg 1.862695 -0.000000 -0.000000
RightFoot -20.753171 -17.249871 41.023603
RightToeBase 18.283837 -0.000000 -0.000000
LeftUpLeg -105.765586 26.604228 4.006996
LeftLeg 134.005475 -0.000000 -0.000000
LeftFoot -32.029510 0.489058 -22.709995
LeftToeBase -16.247395 -0.000000 0.000000
Spine 33.182423 0.642914 -51.110779
RightShoulder -14.500465 4.863515 -44.249213
RightArm 33.291840 69.810456 -12.593103
RightForeArm -2.977815 0.000000 16.588561
RightHand 14.573359 -0.000000 -44.384239
RightHandThumb1 -24.326973 -0.000000 -32.862282
LeftShoulder -16.772724 42.445351 13.359088
LeftArm 90.420192 -39.811580 -128.397729
LeftForeArm -9.241548 -0.000000 10.798054
LeftHand -28.228441 -0.000000 96.961164
LeftHandThumb1 -26.253704 0.000000 33.147579
Head 8.715090 5.052841 -46.897625
725
root 26.730226 17.805968 -0.396125 4.089492 28.659044 -20.338031
RightUpLeg 15.593791 -6.542245 -36.486952
RightLeg 1.888427 -0.000000 -0.000000
RightFoot -20.726091 -17.255767 40.927958
RightToeBase 18.286646 -0.000000 -0.000000
LeftUpLeg -105.780850 26.601503 3.970338
LeftLeg 134.005640 -0.000000 -0.000000
LeftFoot -32.086763 0.547304 -22.645443
LeftToeBase -16.244375 -0.000000 0.000000
Spine 33.204211 0.634541 -51.088875
RightShoulder -14.559379 4.826219 -44.251991
RightArm 33.645973 69.829051 -12.243844
RightForeArm -3.603867 -0.000000 16.678973
RightHand 13.741322 -0.000000 -44.650251
RightHandThumb1 -24.326973 -0.000000 -32.862282
LeftShoulder -16.783320 42.448191 13.342997
LeftArm 90.434103 -39.792927 -128.392728
LeftForeArm -9.257954 -0.000000 10.755058
LeftHand -28.206126 -0.000000 96.935676
LeftHandThumb1 -26.253704 0.000000 33.147579
Head 8.686653 5.049032 -46.882971
726
root 26.733513 17.807393 -0.400708 4.094820 28.661853 -20.361161
RightUpLeg 15.566044 -6.542180 -36.458985
RightLeg 1.901182 -0.000000 -0.000000
RightFoot -20.727194 -17.293107 40.877653
RightToeBase 18.337376 -0.000000 -0.000000
LeftUpLeg -105.797998 26.595612 3.936939
LeftLeg 133.992699 -0.000000 -0.000000
LeftFoot -32.161655 0.608511 -22.587238
LeftToeBase -16.163163 -0.000000 0.000000
Spine 33.219345 0.637139 -51.049017
RightShoulder -14.539564 4.863697 -44.270052
RightArm 33.700279 69.881132 -12.248934
RightForeArm -3.003224 -0.000000 16.626525
RightHand 14.439040 -0.000000 -44.333813
RightHandThumb1 -24.326973 -0.000000 -32.862282
LeftShoulder -16.771188 42.456741 13.336011
LeftArm 90.508841 -39.761956 -128.421969
LeftForeArm -9.249844 -0.000000 10.662887
LeftHand -28.209780 -0.000000 96.936595
LeftHandThumb1 -26.253704 0.000000 33.147579
Head 8.666208 5.071969 -46.856924
727
root 26.736259 17.809932 -0.405081 4.092083 28.663246 -20.401444
RightUpLeg 15.532693 -6.565460 -36.420074
RightLeg 1.918686 -0.000000 -0.000000
RightFoot -20.702697 -17.306982 40.843276
RightToeBase 18.344871 -0.000000 -0.000000
LeftUpLeg -105.817375 26.591284 3.918487
LeftLeg 133.972797 -0.000000 -0.000000
LeftFoot -32.249923 0.698628 -22.541942
LeftToeBase -16.176109 -0.000000 0.000000
Spine 33.236149 0.616710 -50.997612
RightShoulder -14.520972 4.890044 -44.310157
RightArm 33.451596 69.712567 -12.665168
RightForeArm -2.387615 -0.000000 16.303674
RightHand 15.269665 -0.000000 -44.552889
RightHandThumb1 -24.326973 -0.000000 -32.862282
LeftShoulder -16.766277 42.485718 13.297634
LeftArm 90.573533 -39.750306 -128.375469
LeftForeArm -9.329809 -0.000000 10.518842
LeftHand -28.177812 0.000000 96.946652
LeftHandThumb1 -26.253704 0.000000 33.147579
Head 8.633949 5.059585 -46.887592
